<svg xmlns="http://www.w3.org/2000/svg" viewBox="0 0 160 160">
<!-- SVG created with Arrow, by QuiverAI (https://quiver.ai) -->
  <style type="text/css">.cls-0 {fill:#A8DCFF;}
.cls-1 {fill:url(#SVGID_1_);}
.cls-2 {fill:#007CCC;}
.cls-3 {fill:#5FB1EA;}
.cls-4 {fill:#339CD7;}
.cls-5 {fill:#BBE5FD;}
.cls-6 {fill:#003B6D;}
.cls-7 {fill:#007CC4;}
.cls-8 {fill:#E6F5FE;}
.cls-9 {fill:#7DC6F1;}
.cls-10 {fill:none;stroke:#BBE5FD;stroke-width:1.75;stroke-miterlimit:10;}
.cls-11 {fill:#AFDDFC;}
.cls-12 {fill:#6ABBEF;}
.cls-13 {fill:url(#SVGID_2_);}
.cls-14 {fill:#003C71;}
.cls-15 {fill:#F79D46;}
.cls-16 {fill:#FF912E;}
.cls-17 {fill:url(#SVGID_3_);}
.cls-18 {fill:none;stroke:#FEC386;stroke-width:1.5;stroke-linecap:round;stroke-miterlimit:10;}
.cls-19 {fill:none;stroke:#555563;stroke-linecap:round;stroke-linejoin:bevel;stroke-miterlimit:10;}
.cls-20 {fill:#2599DE;}
.cls-21 {fill:#CCEBFC;}
.cls-22 {fill:#FDDAC0;}
.cls-23 {fill:url(#SVGID_4_);}
.cls-24 {fill:url(#SVGID_5_);}</style>
  <linearGradient id="SVGID_1_" x1="80" x2="80" y1="8.614" y2="74" gradientUnits="userSpaceOnUse">
    <stop stop-color="#B8E3FF" offset="0"/>
    <stop stop-color="#CEF" offset="1"/>
  </linearGradient>
  <path class="cls-1" d="m32.1 25.7c-14 12.5-23.8 31.8-23.8 54.1 0 3.2 0.2 6.3 0.6 9.2l17.1-14.1 3-3.3h13l6.3-11.6c-8.2-3.9-17.3-5.6-17-13.3-0.3-5.7 0.8-21 0.8-21z"/>
  <path class="cls-0" d="m127.6 25.7c14 12.4 24.1 30.2 24.1 54.1 0 3.2-0.2 6.3-0.6 9.2l-17.1-14.1-3-3.3h-14l-5.3-11.6c8.2-3.8 17.2-5.6 16.9-13.3 0.4-5.7-1-21-1-21z"/>
  <path class="cls-2" d="m32.1 25.7c5.3-4.8 12.6-9.9 21.3-13.2l4.6-1.6 5-0.9 7-2 10-0.5 10 0.5 8 1 6 2.1 7.5 3.4 0.4 0.2c5.1 2 12.8 7.4 15.8 11 0.6 4.7 1.2 15 0.9 21l-13.9 11.3-20.7 6h-29c-6.6 0-34-5.6-33.7-16.3-0.3-5.7 0.3-18.5 0.8-22z"/>
  <path class="cls-3" d="m31.1 42c-0.3 4 0.2 6 0.2 6 1.4-10.6 19.4-13.3 21.2-16.3l0.5-10c-3 4.3-20.9 7.3-21.9 20.3z"/>
  <path class="cls-4" d="m31.1 43v3c1.3-8.1 12.9-12.4 15.9-14.3 5-1.8 5.7-6 6-7.7-6 5-20.4 7-21.9 19z"/>
  <path class="cls-3" d="m54 23c5-4 13-9.4 26-9.4s21 2.4 26 6.4c3 3 6 8 7 9l-0.4 5.6-3.6-1.7-4-5.9c-4-2-11-4-25-4.4-11 0-19 1.4-22 3.4l-3.7 2.3-0.3-5.3z"/>
  <path class="cls-4" d="m57.3 18.7c4.7-2.8 11.7-4.7 21.7-5.1 8.6 0 17 0.4 25 5.1 2 1 2 4.3 2 4.3l-1 1c-5-2-13-4-25-5.4-9 0-16 0.4-21 2.1l-4.5 2.4 0.1-2.1 2.7-2.3z"/>
  <path class="cls-0" d="m58 26.2 0.8-15.7c1.6-0.5 1.2-0.2 1.2-0.2l0.2 14.9 8.7-2 1-13.4 0.8 13.2c7.3-0.6 13.9-0.6 22.7 0.4l0.7-12.9 1.3 13.5c1.9 0.3 6.2 1.4 7.5 2.4l0.7-14.6 0.7 15.4 1.6 1.5 0.7-10.9 0.8 10.9 0.2 1.8c0.1 1.1 0.9 2.5 3.2 3.5l0.5-19.5 0.6 0.2 0.1 20.2c-3-1-5.2-3.9-6.5-5.2-3.7-3.6-10.5-5.7-25.5-5.5-14 0-23 1.8-25.4 5.8l-0.2-1.6-0.7-16.1-0.4 0.2-0.9 18.8-0.3 0.5c-0.9 1.7-3.6 2.7-5.2 3.2l-0.7-15.2-1.2 16.1-4.1 1.8-0.6-15.6-0.9 16.5-4.2 2.7-0.7-14.1-0.8 15.2c-2.7 1.9-2.8 6.6-2.4 5.3 0.4 1.3 0-3 8.1-7.8 6-3.5 11.2-3.5 13.6-6.9l3-5 2-1.8z"/>
  <path class="cls-2" d="m8.8 88.2 14.9-13.5 4.3 0.5c1.9 0.3 3.4-1.2 4-1.8l5.4-7.2 5.6-2.6 3.2-3.6c5.5 2.1 9.2 3.3 19.8 4-8 0-16.8-1.9-19.8-2.5l-6.8 8.5 2.6 0.6-12.6 9.4-15.3 3-5.3 5.2z"/>
  <path class="cls-3" d="m20 79.9-5.9 3.1 8.3-5.1-3.2 4.5 6.4-5.4 2.7-1.3-3.1 4.7 8.8-5.5 4.6-5.9 1.8 0.4-7.7 6.1c3-1.5 6.3-4.5 7.6-5.9l-3.9 7.8 5.4-6.5-0.9-4.4 2-0.1 4.1 2.2 2.1 3.8-5.2-3.7-1.3-2.2 3.6-6.1 0.2-2.4s-3.5 4.6-6.4 6c-1.9 0.9-2.6 2.2-2.6 2.2l6.2-2-4.5 1.7-1.7 0.3-6.2 7.4c-1 1-2.1 1.9-2.9 2.1l-4.6-0.8-3.7 5z"/>
  <path class="cls-2" d="m30.7 95.6-4.3 17.1c-2.8 2.6-3.4 5.3-3.4 12 5.4 7.1 14 14.2 21.4 18.7l8.6 3.6 9 2.6 18 2.4 10-0.3 10.4-2.1 5.6-1.7 6.9-2.7 3.5-1.8c7.3-4 15-10.1 20.6-18.4 0-8.1-1.1-10.2-3.4-12.4l-5.6-16.6-13-5.7-1.1 8.7-3.3-10-3.2 25.4-3-24.4-9.8 13.4-2.6-4 6-10.4-13-4-10 0.7-12 4.3 1.6 13.4-8.7-10.7-3.4 21.7-3.5-25.4-3 11.9-1.4-10.6-12.9 5.7-1-0.4z"/>
  <path class="cls-6" d="m29.2 97-2.8 15.6c-2.4 2.3-3.5 4.2-3.3 12.1 4.8 6.2 11.9 13.2 21.3 18.7-1-8-3.4-19.4 4.6-18.4 1.7-1.6 4-3 4-1.7l0.7 5 1.9 3.1-6.6 0.6c-0.3-5 1-8.9 3.9-9.4l-0.4 2.4 0.5 1c0.4 2.7 1 4 2.6 5.6l-6.6 0.4 6.6-0.4 1 0.7c0.4 0.3 1.8 1.1 1.8 1.1 0.2 5-0.5 12.7-1.2 15.5 6.8 2.2 14.5 3.7 22.7 3.7 7.7 0 14.3-0.7 21.4-3.2-0.9-5-1.4-10-1.3-15l1.6-0.5c0 5.5 0.3 10.7 1.3 15l3.1-1 6.9-2.9h0.1-0.1 0.1-0.1c0.9-0.4 0.1 0 0.1-0.1l-0.1 0.1 0.1-0.1c2.4-1 0.7-0.2 0-0.5 0 0 1.7-13.4-1.6-19.4h-4.3l0.3-2-0.3-1c2 0 3.9 3 3.9 10l-6.6-0.4c1.6-1.6 2.5-4.2 2.6-6.6l0.5-2 3.5 2c-1.6-3-3.9-3.6-3.9-3.6l3.9-1.4s3.1 3.9 1.9 5c1.2 1 1.1 13.6 0.1 19.9 9.9-5.3 16.6-10.9 24-20.2 0-6.7-0.6-9.6-3.4-12.1l-3.3-8.7-2.7-7.9-12.2-5.6-1.5 10.3-3.2-10-3.2 23.7-2.9-24.1-8 13.1-2.3-0.4 3.7-10-7.7 4 8.6-24.6-5.8-2.8 0.9-3.6-0.4-6-0.7-1.7c1.7-0.3 2.7-5.3 2.7-8.3 0-3.3-2.6-2.7-1.3-3 0.3-1.7 1.3-6-1.2-8.4 0-1.6-2.1-4.7-5.2-5.5-2-1.5-2.5-1.7-4.9-1.4-1.2-0.6-4.6-0.9-6.4-0.1-2.5-0.2-3.2 0-4.7 1.4-2.3 0.6-4.5 2.6-5 5.6-2.3 2.4-2 5.4-1.3 8.7-0.6 0 2.4 1 0.5 0-2.7 0-2.5 2.3-1 8.3 0.8 2.4 1.8 2.4 1.8 2.4l-0.9 3 0.1 5 0.6 3.6-5.4 2.8 8.4 24.9-8-3.7 4.4 8.3-1.5 1.7-6-6.3-1.2 15.7-1.8-20.3 2.4-3.7-2.6 1-2.9 24.4-3.5-23.7-3 10.2-1.4-10.3-12.7 5.5-2.7 7.9 0.2-6.9-0.2-0.1z"/>
  <path class="cls-0" d="m59.6 69.7-27.1 11.3-3.1 15.9 15.1-6.3 1.5 10.3 3-10.3 3.5 23.8 2.9-23.9 14.3 6.8-8.6-24.9 5.6-2.8z"/>
  <path class="cls-2" d="m97.4 70.7 3-1 4.6 2.2 22.1 9.1 3.2 15.9v6.9l-2.7-7.8-12.2-5.6-1.5 10.3-3.2-10-3.2 23.7-2.9-24-8.2 13-2.1-0.4 5.7-11.1 4.6-1.9 0.4-1-0.4 0.6 5-2.3 4.4-2.7 8-2.7-9.6-6.9-1 0.4z"/>
  <path class="cls-5" d="m94.1 64 9.9-0.7 1.6-2.3c-1.3 0.6-9.2 2.6-11.6 3h0.1z"/>
  <path class="cls-0" d="m97.4 70.7 8.2-4.8v-3.9l3-2 4.3-6.4 0.7 0.7c1.5 3.1 6.4 9.1 8.4 10.8l3.6 1.3 5.4 7 5.4-0.5 14.7 15.7c-1.1 10.8-5.1 24.3-14.1 36.1 0.4-7.7-0.6-9.7-3.4-12.3l-3.2-8.5-0.1-6.9-3.2-16-26.5-11.3-3.2 1z"/>
  <path class="cls-2" d="m122.4 65.1-5.5-6.1-3.8-5.4-0.7 8 4.3 7.3-4-3.2-1.3-2.6-3.7 4.8 2.7-9.5-4.4 3.2-2 4.3-6.6 4.8 3-1 7 3.2 4 2.5c0.6-3.4 1.7-4.1 1.9-5.4l3.7 6.4 10.1 4.6 3.2 16v6.9l-2.7-7.9-12.2-5.4-1.5 10.1-3.2-10.1-3.2 23.8-2.9-24.5-0.6 9.1-1.6 13.9-1-15.5-5 6 3.6-6 4-4.7-0.4-2.8 6-2.6 4.4-2.7 4.9-2s4.8-1 3.1-1.2l-9.6-6 15 5.6 2.9 16 0.1 6.9 3.2 8.5c2.6 2.5 3.5 4.7 3.4 12.3 7.6-10.1 12.4-22.7 14.1-36.1l-8.7-9.7-1.4-0.3 1.9 3.8-4.3-4.4-2.2-3-0.3-1.1 0.3 0.1v-1.1l-5.4 0.5-5.4-7-3.2-1.3zm10.6 8 3.4 8.9-9.4-11.6c-2-2.4-6-3.1-6-3.4l5.9 9.2-6.2-3.3 1.4-1-4.5-7.5c-1.9-3.4-3.9-7.4-4.5-10.8 1 1.4 5.8 7.8 8.9 11.4l0.4 0.1z"/>
  <path class="cls-3" d="m130.9 86.2 2.7 5.7 4.5 1.8-2.7-3.8 3.3 0.2 9.6 7-8.7-9.2h-5.7z"/>
  <path class="cls-3" d="m133.6 98 12.1 8.4-3.1-5.4z"/>
  <polygon class="cls-2" points="51.1 67.6 56.1 69.7 53.9 67 54.7 65.6 52.5 65.6 48 60.4 50.1 62.1 58.9 64 54.9 65.6 58.7 69.9 51 73 44.6 68.7 46.6 64.4 46.4 58"/>
  <path class="cls-0" d="m38 65.9 5.6-1.7-3.5 0.4z"/>
  <path class="cls-2" d="m137.7 79.6 2.3 4.7-0.9-3.3z"/>
  <path class="cls-3" d="m10.6 98.6 11-12.9 6.8-4.1-1 3-2.4 4.1 3-1.4-0.6 1.3-9.7 7.8 4-7-11 9.6z"/>
  <path class="cls-3" d="m14.3 106.6 5.3-6.2 6.3-1.5-4.3 2.2-2.5 1z"/>
  <path class="cls-0" d="m31.6 47.7c-0.4 5.9 4.8 8.9 13 12.3 1.4-1 1.4-0.6 1.4-0.6-5-2-14.1-5.4-13.1-12.4l-1.3 0.7z"/>
  <path class="cls-4" d="m34.7 46c-1.1 6 5.9 9.9 11.3 12.4l-0.4 1c-4.6-1.8-12.6-5.4-11.2-12.7l0.3-0.7z"/>
  <path class="cls-4" d="m116.6 58.4-0.2-0.8c4.6-1.5 9.2-5.2 9-10.9 1.5 5.3-3.8 9.4-8.8 11.7z"/>
  <path class="cls-0" d="m117.1 59.4c7.3-2.8 12-6.4 11.3-12.8l-2-4.2-1.4-14.7 0.6 14.4c-3.7-3.2-8.2-5.5-12.7-7.2l-0.3-20c3.8 1.7 11.5 6.5 15 10.8 0.8 6 1.5 16.7 0.8 22.9-0.3 5-4.8 8.5-11.3 10.8z"/>
  <path class="cls-3" d="m125.4 33.6 3.5 6.3v6.1c-0.3-4.3-2.5-7-3.8-8.4l0.3-4z"/>
  <path class="cls-2" d="m33 45.9c4.4-6.3 14-8.5 17-10 4-1.5 3.6-3.9 5.4-5.5 3.5-3.7 10.6-6.1 24.6-6.3 14 0 22.9 1.9 25.6 6.5 2.4 4 3 4.3 7.4 5.8 5 1.6 10.4 4.6 13 8.2l-2 0.5c-2-4.1-9.1-6.5-14-8.4-3-1.3-4-2.1-5.1-4.3-2.3-4.3-9.9-6.8-24.9-6.8-15.4 0-22.1 2.4-24.1 6-1.5 3-2.3 4-6 5.4-4.9 2-13.2 4.6-14.9 8.9h-2z"/>
  <path class="cls-0" d="m38 44c-2.3 4.4 1.9 9.1 6.6 12.1 4 2.5 13 6.3 21.4 7.5-8.4 0-17.6-3-21.6-5.2-6-3.4-11-6.8-9.5-12.4l3.1-2z"/>
  <path class="cls-4" d="m125.6 45c3.3 4.4-0.6 9.6-9.2 13.4l-0.4-0.8c5.4-2.6 11.1-7.6 9.6-12.6z"/>
  <path class="cls-0" d="m38 44"/>
  <path class="cls-0" d="m121 42"/>
  <path class="cls-6" d="m80 31"/>
  <path class="cls-0" d="m38 44"/>
  <path class="cls-3" d="m34.1 82-3.6 14 18.5-8.4 0.5 0.4 2.5 7.6 1.4 2.4 0.5-8 0.1-1-4.6-2.4z"/>
  <path class="cls-11" d="m46.4 82.4 7.3 15.2-1.3 9-3-19"/>
  <path class="cls-12" d="m33 92 3.9-6.6 7.7 3.6-7.8 3.9 2.2-5.9z"/>
  <path class="cls-12" d="m32 95.7 6.4-9.7 0.4 0.4z"/>
  <path class="cls-9" d="m33 92 2.2-7.4 11.8 4.3-2 1-6-2.9-2.1-1.1z"/>
  <path class="cls-11" d="m37 81.3 12.6-5.2 10.4 9-10.9-6-7.4 1.9 6.5-3 0.2 7.6z"/>
  <path class="cls-12" d="m48.7 79.5h1.9c1.5 0.6 4.3 2.6 5.3 4.1l7.1 7.5-11-10.5-3 0.1-7 0.3 6.4-1.4"/>
  <path class="cls-9" d="m49 80.9 1.6 5 17.1 9.2-7.7-22.7-9 3.3 9 9.4z"/>
  <path class="cls-11" d="m54.9 76.4 3.5-2 0.9 6.2-1.7-4.6z"/>
  <path class="cls-11" d="m60.9 80 2.1 5.9-1.4-0.8z"/>
  <path class="cls-12" d="m49 80.9 1.4 5 6.6 3.2-5.3-5.7z"/>
  <path class="cls-9" d="m62.9 87 2.1 4.6-7.9-7.9-8.1-2.8 0.1-0.5 1.5-0.3z"/>
  <path class="cls-11" d="m55.6 92.7 0.3 2.7 8.7 8.6-1.6-2 0.6-1.6z"/>
  <path class="cls-12" d="m59.2 93.6-0.2 2 5.6 7.8 1.5-1.5z"/>
  <radialGradient id="SVGID_2_" cx="80" cy="114.5" r="29.04" gradientTransform="matrix(1 0 0 1.375 0 -43.82)" gradientUnits="userSpaceOnUse">
    <stop stop-color="#EFBB89" offset="0"/>
    <stop stop-color="#E7AD7D" stop-opacity=".8571" offset=".1429"/>
    <stop stop-color="#D0875C" stop-opacity=".586" offset=".414"/>
    <stop stop-color="#AA4928" stop-opacity=".2147" offset=".7853"/>
    <stop stop-color="#932409" stop-opacity="0" offset="1"/>
  </radialGradient>
  <path class="cls-13" d="m49.6 114.4c0 20.1 6.4 38.3 30.4 38.3s30.4-17.6 30.4-38.3c0-30.4-11.4-42-30.4-42s-33.6 11.2-30.4 42z"/>
  <path class="cls-2" d="m62 135.4c1.9 4.8 5.6 9.7 13.4 12.5-5.5-3.5-9.3-8.5-11.4-12.9l-2 0.4z"/>
  <path class="cls-2" d="m98.4 135.6c-2.3 4.8-6 9.8-14 12.1 4.7-2.7 9.5-8.6 11.6-12.1h2.4z"/>
  <path class="cls-12" d="m83.1 88.4c2.3-0.3 8.9-2 10.5-5.8-1.7 1.3-6.5 3.4-9.7 3.8l-0.8 2z"/>
  <path class="cls-12" d="m83.6 91.9 0.5 1.7c2.3-0.5 6.9-2.7 7.9-5.7-3 2.5-6 3.5-8.4 4z"/>
  <path class="cls-12" d="m76.4 88.1-0.4 1.9c-2.4-0.3-7.4-2-8.1-2.1 0.5 1 4.5 5.1 8 5.7l1-2-0.5-3.5z"/>
  <path class="cls-12" d="m75.6 85 0.4 1.9c-3-0.5-8.4-2.2-9.6-4.3 3.7 2.4 7.7 3.1 9.2 3.3v-0.9z"/>
  <path class="cls-12" d="m84.4 83v1.4c3.7-0.4 9.5-2.8 11.7-8.7-2.7 3.2-6.1 6-11.7 7.3z"/>
  <path class="cls-12" d="m74.9 82.9 0.2 1.5c-3.7-0.4-9.2-2.8-11.2-8.5 2.1 2.5 5.5 5.7 11 7z"/>
  <path class="cls-14" d="m80.1 31c-1.2 0-2.2 0.2-3.5 0.6-1.7-0.2-3 0-4.6 1.5-2 0.6-4.6 2.5-5.1 5.5-1.8 1.8-2.3 4-1.5 8.3l0.7 0.4c-2.7-0.4-2.1 3.1-1.5 6.1 0.5 2.2 1 4.5 2.3 4.6l-0.8 2.4c-1 4 0.5 7.6 0.6 9l-5.4 3 4.8 13.3 9.3-2.7c-6.4-1.4-10.4-5.1-11.5-7.1 2 2.5 5.7 5.5 11 7l0.7 0.2-0.4 1.3 0.8 2.2 0.1-0.2c0.3 2 1.9 3.6 3.9 3.6s3.6-1.3 3.9-3.6l0.5-0.4v-1.6l0.2-0.7v-0.7c5.5-1.1 9.3-4 11.5-7.3-0.7 2.3-3.1 6.9-11.7 8.7l-0.5 2 8.1-3.4 6.9-10.6-5.8-2.8c0.8-2 1.9-6.7 0.3-11 1.7-1.2 2.2-4.6 2.6-8.2 0.1-3-1.9-3.5-1.9-3.1 0.8-3.3 0.9-6.7-1-8.7-0.1-1.6-1.7-4.5-5.5-5.5-1.6-1.5-2.5-1.7-4.6-1.5-1.1-0.5-2-0.6-2.9-0.6z"/>
  <path class="cls-2" d="m71.1 35.4c1.9-1 4.9-0.8 6.8 2.6-2.3-0.6-4.3-3.1-6.8-2.6z"/>
  <path class="cls-2" d="m70 35.7c1.9-1.6 5.4-0.1 7.1 1.9-2.1-0.7-4.2-2.2-7.1-1.9z"/>
  <path class="cls-2" d="m68.4 37.9c0.6-1.9 3.6-2 5.5-0.9-2.3 0-3.9 0-5.5 0.9z"/>
  <path class="cls-2" d="m66.6 42c0.3-2 1.5-3.4 3.8-3.4-1.5 1-2.7 1.8-3.8 3.4z"/>
  <path class="cls-2" d="m66.4 43.9c-0.4-1.9 1.7-3.3 2.6-3.5-0.9 1-1.9 3.2-2.6 3.5z"/>
  <path class="cls-2" d="m66.6 45.6c-0.2-1.6 1.5-2 2-2.7 0 1.7-1.7 2.1-2 2.7z"/>
  <path class="cls-2" d="m66.9 47.4c-0.5-1.4 0.7-1 1.2-2 0.3 1-0.7 1.2-1.2 2z"/>
  <path class="cls-12" d="m82 38.1c0.6-2.4 4.4-5.1 7.9-2.5-3.3-0.5-6.5 2-7.9 2.5z"/>
  <path class="cls-2" d="m84.4 36.6c1.5-1.5 4.2-2.5 6.2-0.7-1.7 0.1-4.7 0-6.2 0.7z"/>
  <path class="cls-2" d="m86.4 37c2-0.9 4.7-0.9 5.2 1-1.5-0.4-2.5-1-5.2-1z"/>
  <path class="cls-2" d="m89.4 38.6c2-0.2 3.6 1 4 3.4-0.8-0.9-2.3-2.6-4-3.4z"/>
  <path class="cls-2" d="m91 40c1 0 2.6 1.4 2.4 3.6-0.5-0.6-1.8-2.2-2.4-3.6z"/>
  <path class="cls-2" d="m91.1 42.9c0.9 1.1 2.3 1.5 2.3 2.7-1.3-0.5-2.3-1.6-2.3-2.7z"/>
  <path class="cls-2" d="m91.4 45.4c0.6 1 1.7 1 2 2l-0.8 0.2-1.2-2.2z"/>
  <path class="cls-12" d="m78 32.4c1-0.7 3.6-0.5 4 0-1 0.2-1.4 1.3-1.9 2.2-0.4-0.9-1.1-1.6-2.1-2.2z"/>
  <path class="cls-12" d="m73.9 33.1c2.1-1.1 5.7 0 5.7 4.3-0.7-1.8-2.6-4-5.7-4.3z"/>
  <path class="cls-2" d="m80.6 37.9c-0.2-3.3 1.8-5.9 4.8-4.8-3.4 0.9-4.5 3.5-4.8 4.8z"/>
  <path class="cls-12" d="m80.4 38.6c0-2.2 1.7-5.2 4.7-5.2-2 1-3.5 3.2-4.7 5.2z"/>
  <path class="cls-12" d="m78.4 38.6c-0.3-1.5-2.5-4-5.3-4.2 2.3-0.4 4.8 2.2 5.3 4.2z"/>
  <path class="cls-12" d="m82 38c1.1-2.1 4.6-4 6.1-3-2.5 0.4-4.7 2.4-6.1 3z"/>
  <path class="cls-12" d="m86 37.6c1.1-1.2 4.6-1 5.4 0-2-0.6-3.8-0.2-5.4 0z"/>
  <path class="cls-12" d="m73.6 37c-2-1.1-4.2-1.1-4.9 0 1.4-0.4 2.9-0.4 4.9 0z"/>
  <path class="cls-12" d="m84.6 38c-1.7 0.6-2.6 1.4-4.5 1.4-2.2 0-4-1.4-6-1-2 0.2-4.1 1.6-4.1 4s0.4 2.5-1.3 5.5c-0.3 3-0.7 5 0.3 7.1 1 1.9 2.1 3 2.4 4.9 1.2-0.9 1-2.5 3.2-5 1-1.5 2.8-3 3-3.8-1.6 2.9-1 5.9-0.6 6.8 3.9 0.5 5 0.2 5 0.5 1.6-2.5-1.4-3.4 2.1-7.4 0.8 1.4 2.8 6.9 3.5 8.4l0.5 1.7c0.8-2.5 2.9-4.7 3.3-8.1 0-2-0.4-6.1-0.4-6-0.9-1.4-1.4-2.1-1.1-4.6 0.2-4-3.3-5-5.3-4.4z"/>
  <path class="cls-2" d="m84.6 38.2c-3.6 1.4-4.2 1.2-4.5 1.4-1.4-0.2-3.1-0.6-4.7-1.2-2-0.4-3.8 0.6-3.7 3v3c-0.1 1.6-1.1 2.2-1.7 3.5 2.4-2.5 4.4-1.3 6.9-0.5 3 1 2-2 2-2 0.5 0.2 0.7 1.5 0.5 2l1.2 0.2 0.4-2.2h0.4c-1 3.2 1.5 2 4.7 1 1.3-0.5 2.5-1 4.3 1.6-2.3-1.6-3.8 0-6.5 0.9 3.5 0.1 4 1 6 1.1l-1.5 1.1-5.3 0.3h1.5l2 4.5c2.3 1.5 1.5 5.2 1.5 5.2l0.5-0.1c0.8-2.6 2.5-4.6 2.8-8 0-2-0.4-6.1-0.4-6-0.9-1.4-2.4-2.1-2.4-4.1 0.3-4.9-2-5.5-4-4.7z"/>
  <path class="cls-6" d="m70 47.9c1.6-2 4.4-1.3 6.9-0.5 3 1 2.5-2 2.1-2 0.7 2 0.6 2.2 0 2.6 1 0.4 1 0.6-0.4 1 0.8 0.9 0 6.6 0 6.6-0.2-2.6 0-5-1-4.6-0.6 0.9-3.6 4-7.2 0h0.7c2.3 1.9 5.3 1 5.5-0.6-3.6 0.5-4.5-0.5-6.5-0.8l2.8-1.2 2.7-0.4-1.6-0.1c-1.9-0.9-3-0.3-4 0z"/>
  <path class="cls-6" d="m90.4 47.9c-1-1.3-1.8-1.9-3.5-1.5-3.5 1-6.2 2.6-5.8-1-1.1 1-0.7 2.2 0 2.6l-0.1 1c0.9 0.4 0 6 0 6h0.6c0-2 1-5 1.3-4 2 2.4 5 2 7.1 0l-0.4-0.1c-3.2 2.1-5.6 0.5-6.2-0.8l4.6-0.1h1.9l-3-1.6h-3.5l2.6-0.8c2.1-0.7 2.6-0.5 4.4 0.3z"/>
  <path class="cls-15" d="m78 91.4c-1 1.2-1.6 3 0 4.5l1-0.3c-0.4-0.7-1-2.2-0.4-4l-0.6-0.2z"/>
  <path class="cls-15" d="m80.9 91.6c1 0.8 0.5 3 0 4h1.1c1.4-1.6 0.9-3.7-0.4-4.5l-0.7 0.5z"/>
  <path class="cls-15" d="m77.9 89.4c1.1 0.6 3.2 0.2 4.1 0l-0.1 0.6c-0.9 0.9-4 1-4-0.1v-0.5z"/>
  <path class="cls-16" d="m79 91.6c-0.6 0.5-0.3 3.4 0 3.4h0.6c-0.2-0.4-0.2-2.9 0-3.4h-0.6z"/>
  <path class="cls-16" d="m80.4 91.6c0.6 0.5 0.5 3.4 0 3.4h-0.4c0.4-0.4 0.4-2.9 0-3.4h0.4z"/>
  <radialGradient id="SVGID_3_" cx="79.69" cy="114.5" r="19.28" gradientUnits="userSpaceOnUse">
    <stop stop-color="#FFDBBA" offset="0"/>
    <stop stop-color="#FF912E" offset="1"/>
  </radialGradient>
  <path class="cls-17" d="m98.7 114.5c0 9.5-8.6 19.2-18.7 19.2s-19-9.1-18.6-19.2c0-9.5 7.6-18.9 18.6-18.9 9.6 0 18.7 6.8 18.7 18.9z"/>
  <path class="cls-18" d="m61.4 114.5c0-9.5 7.6-18.9 18.6-18.9 9.6 0 18.7 6.8 18.7 18.9"/>
  <path class="cls-6" d="m69.4 54c1.6 2 3.6 2.1 2.2 7 0-2-2.7-4.1-2.2-7z"/>
  <path class="cls-6" d="m84.6 54c1.4 0.9 3.3 4.4 2.4 6.4-0.4-2.3-2.6-3.8-2.4-6.4z"/>
  <path class="cls-6" d="m89.1 54c-2.2 2.6 1 6.1-1.7 5.9 0.2-4.9-0.5-2.9 1.7-5.9z"/>
  <path class="cls-12" d="m75.1 54.6c-3 1.3-7.2-0.7-4.7-3.6 2.2 1.9 3.7 1.9 6.5 0.6-0.9 1.3-3.5 1.8-3.9 7.4 0.4-2.6 0.4-3 2.1-4.4z"/>
  <path class="cls-12" d="m84.9 54.4c2 1.5 6.2-0.4 5.1-3-1.4 1.5-4.4 2.2-7.4-0.4-0.5 0.4 1.4 1.6 4.3 2-0.3 1-0.8 1.6-2 1.4z"/>
  <path class="cls-6" d="m69 53.6c0.6 1.5 3.6 2.4 2.6 6.3l-1-3.3-1.6-2.6v-0.4z"/>
  <path class="cls-6" d="m90.9 54.1-2.9 2.5 0.1 3c-0.1-4.6 2.3-3 2.8-5.5z"/>
  <path class="cls-2" d="m68.7 56.6c1.2 2.4-1.1 4.4-2 6.4 0.2-2.1 2-4 2-6.4z"/>
  <path class="cls-2" d="m69.7 59c0 1.4-2 3.6-2.3 5-0.4-2.1 1.7-3 2.3-5z"/>
  <path class="cls-2" d="m69.9 60.4c-0.5 1.6-2.5 4.5-2.3 7.6 1.4-5.1 2.8-5.4 2.3-7.6z"/>
  <path class="cls-12" d="m70.4 62.9c-4 7.1-2 12.1 3 15.5-4.3-5.8-3.3-10.8-3-15.5z"/>
  <path class="cls-2" d="m91.4 56.4c-1 2.2 1.5 4.2 1.6 6-0.9-1.5-2.9-3.4-1.6-6z"/>
  <path class="cls-2" d="m90.4 59c0.5 1.9 2.5 3 2.6 5.9-1-2.3-2.6-4-2.6-5.9z"/>
  <path class="cls-2" d="m89.6 60.4c2 4.2 2.8 5.5 2.4 8-1-3.8-2.6-6.5-2.4-8z"/>
  <path class="cls-12" d="m89.1 62.9c3.5 7.7 2.8 12-2.5 15.7 4.4-5 2.8-12 2.5-15.7z"/>
  <path class="cls-6" d="m65.4 49c-1 0.6 0.7 8 1.6 7.9l0.4-1.5c-1.5-0.4-0.5-5.5-2-6.4z"/>
  <path class="cls-12" d="m65.6 49 1.8 1.9-0.3-1.9c-0.5-1-1.2-0.4-1.5 0z"/>
  <path class="cls-6" d="m94.6 48-1.7 0.6c0.1 1.4-0.3 2.3 0.5 1 0.7-1.6 2.2-1.2 1.2 1.3-1.2 1-1.7 6-1.7 5.8 1.7 0.7 3-8.7 1.7-8.7z"/>
  <path class="cls-12" d="m92.9 48.6c0.5 0.4 1.5-1 1.7-0.6h-0.2c-0.5-0.1-0.5-0.1-1.5 0.6z"/>
  <path class="cls-6" d="m65.4 49.6 1.7 2-1 1c-0.2-1.7-1.1-2.6-0.7-3z"/>
  <path class="cls-6" d="m94.6 49.6-1.5 1.3v1.7l1.5-3z"/>
  <path class="cls-14" d="m76.9 57.9c-3.9 1.1-5.5 3.2-5.9 5l-0.6 5h0.5c0 3.1 0.2 5.7 3.2 9.1 2.8 0.9 9.3 2 11.9 0 1.9-2 3.1-5.1 3.1-9.1l0.3-0.9c0-1 0-6-3.4-8-1.1-0.9-3-1.4-4-1.4l-5.1 0.3z"/>
  <path class="cls-2" d="m71.4 67.4c0.7-1.4 1.2-6.8 6.2-7.4-1.7 0.9-4.2 4-4.5 5.6 1.8-2.6 4-3.2 5.5-4.2 0.8-1-0.2-2.4-1.7-2.4-3.5 0.9-6 4.4-5.5 8.4z"/>
  <path class="cls-2" d="m82 59c2.9 0 6.9 2.4 6.4 8.4-0.3-1.4-2-5.8-5-7.4 2.6 2.9 2.7 5.1 3.2 5.4-1.5-3-6.5-3.5-6-5.8l1.4-0.6z"/>
  <path class="cls-12" d="m78.1 59.4c-2.1 0.6-3.1 3.6-3.1 1.6-0.4 0.9-1.6 3-1 4.1 0.9-2.5 3.6-2.7 5.4-4.2l-1.3-1.5z"/>
  <path class="cls-12" d="m81.4 59.4c1-0.4 3.2 1.2 3.2 1.6 1.4 1 1-0.4 0-1.1l-2.5-0.9-0.7 0.4z"/>
  <path class="cls-2" d="m76.6 63.6c1.3 0.4 1.8 1 2.4 1-0.1 0.8-0.3 1.1-1.1 1.8-1.9 1.6-1.9-1.4-3-1.4 0-1.1 0.7-1.4 1.7-1.4z"/>
  <path class="cls-2" d="m83.4 63.6c-1 0.4-1 1-1.8 1l1.5 1.5c1.9 1.9 2-1.7 1.8-1.7l-1.5-0.8z"/>
  <path class="cls-12" d="m77.4 63.6 1.6 0.8h2.9l1.1-0.5-0.1-0.3c0.1-0.5 0-0.2 1 0l-2.5-1h-3.3l-1.5 1h0.8z"/>
  <path class="cls-2" d="m76.9 67-2 0.6c-0.9 3 1.7 5.8 4.2 8.4-2.5-5-3.1-4.6-2.2-9z"/>
  <path class="cls-2" d="m82.4 66.9 1.7 0.7c1.3 3.3-1 5.5-3.5 8.8 2-5.4 3.5-5 1.8-9.5z"/>
  <path class="cls-12" d="m79 65-0.9 2.6c-1.1 3 0.9 5 1.9 7.4 0.4-2 3-4.1 1.9-7.4l-1.3-2.6h-1.6z"/>
  <path class="cls-2" d="m79.1 66c-1.1 2.4-1.1 3.6 0.9 7.4 1.4-2.5 2.4-3.4 1.1-8l-0.7 3.2-0.4-2.6-0.4 2.9-0.5-2.9z"/>
  <path class="cls-2" d="m74.1 66.4c-2.7 2.2-3.2 5-0.1 9.6 0.4-1 0-2.6-0.1-4.1-0.8-2.5 0.2-4.3 0.2-5.5z"/>
  <path class="cls-16" d="m71.6 71.4c-0.2 1.6 1.4 4.6 2.8 5.6-0.8-2-2.4-3.9-2.8-5.6z"/>
  <path class="cls-16" d="m88.1 71.4c0 1.6-2.1 4.6-2.7 5.6 1.2-0.6 3.2-4 2.7-5.6z"/>
  <path class="cls-2" d="m88.1 71.4c-0.2-2.4-1.1-3.8-2.7-5 0.6 2.2 1 3.6 0.5 5.2 0.2 1-0.5 4.3-0.3 5.3 1.8-1.5 2.5-4 2.5-5.5z"/>
  <path class="cls-16" d="m74.9 74c0.2 1.4 2.1 3 4.1 4l-0.6 0.9c-2.3-1-3.4-2.3-3.5-4.9z"/>
  <path class="cls-16" d="m75.6 78.4c0 1.6 1.4 3.2 3.4 4.2l0.4-1-3.8-3.2z"/>
  <path class="cls-16" d="m76.6 82.4c0 1.3 0.8 2.5 2.4 3.2l0.4-0.6c-0.8-1-2.8-2.4-2.8-2.6z"/>
  <path class="cls-16" d="m77 86c0.1 1 1 2.4 2.4 2.4v-0.5l-2.4-1.9z"/>
  <path class="cls-16" d="m84.6 74c-0.6 1-3.7 3-4.6 5.9 2.1-2 4.9-3.9 4.6-5.9z"/>
  <path class="cls-2" d="m74.6 70c0 3.1 1.5 4.1 3.8 6-1.8-1-4.3-3-3.8-6z"/>
  <path class="cls-16" d="m80 86.9v0.5c1.9-0.8 3.1-2.4 3.1-3.7-0.5 0.9-2.5 1.9-3.1 3.2z"/>
  <path class="cls-16" d="m80.4 88v0.6c1 0.1 2.5-1.2 2.5-2.5-0.8 0.8-1.9 1.3-2.5 1.9z"/>
  <path class="cls-16" d="m80 83 0.1 0.9c2.5-1.3 3.8-2.9 3.8-4.9-0.8 1-3.3 2-3.9 4z"/>
  <path class="cls-2" d="m84.6 67.4c0.8 1.6 0.5 3.5 0 4 0.3-1.5-0.6-3.5-1.2-4.4 0.5 0.4 1 0.1 1.2 0.4z"/>
  <path class="cls-16" d="m80 76c2.6-1 5.4-3.4 4.6-5.6-0.2 3.6-4.6 4.2-4.6 5.6z"/>
  <path class="cls-2" d="m76 67.6c-0.9 0.8-1 3.8 0 4.3-1-1.9 0.9-4.9 0-4.3z"/>
  <path class="cls-2" d="m70 67.6c-0.9 1.5-0.9 4.5 0.4 6l-0.4-6z"/>
  <path class="cls-0" d="m89.6 66.4c1 2.6 0.3 7 0.3 7 1-2.4 0.2-4.5-0.3-7z"/>
  <path class="cls-2" d="m80 42.1c-1.6 0-4.1-0.7-5.9 0 2.9-0.2 4.3 0.5 5.9 0.5 2.1-0.2 2.9-0.7 5.4-0.5-1.8-0.7-3.8 0-5.4 0z"/>
  <path class="cls-2" d="m80 43.9c-1.4 0-4.4-1-7 0 3.1-0.5 5.6 0.7 7 0.7 1.6 0 3.4-1.2 6.9-0.7-2-0.8-5.8 0-6.9 0z"/>
  <path class="cls-21" d="m78.7 55.6c-0.6 2 0.4 1.8 1.3 1.8 2 0 0.9-2.8-1.3-1.8z"/>
  <ellipse class="cls-16" cx="74.2" cy="49.6" rx="2.1" ry=".9"/>
  <ellipse class="cls-22" cx="74.2" cy="49.5" rx="1.1" ry=".5"/>
  <ellipse class="cls-16" cx="85.4" cy="49.5" rx="2.1" ry=".9"/>
  <ellipse class="cls-22" cx="85.6" cy="49.5" rx="1.1" ry=".5"/>
  <path class="cls-6" d="m77 57.9c-0.6-0.9-0.6-2.9 1-2.5l0.4 1.6h-1.4v0.9z"/>
  <path class="cls-6" d="m81 57.9 0.1-1.5h1.3c0.2-0.8-0.4-1.4-0.5-1.4 2.1 0.4 1.1 3.4 1.1 3l-2-0.1z"/>
  <path class="cls-6" d="m77.9 57.4c0 1.6 3 2.2 3.7 0.2-1-0.2-2.5 0-3.7-0.2z"/>
  <radialGradient id="SVGID_4_" cx="80" cy="114" r="4.557" gradientUnits="userSpaceOnUse">
    <stop stop-color="#FFDABA" offset="0"/>
    <stop stop-color="#FFDEC2" stop-opacity="0" offset="1"/>
  </radialGradient>
  <path class="cls-23" d="m75.4 113.7c0 2.3 2.2 4.7 4.6 4.7s5-2.3 4.6-4.7c0.3-2.1-1.5-4.3-4.6-4.3s-4.6 1.7-4.6 4.3z"/>
  <path class="cls-8" d="m92.4 95 8.7-22.6 7.9 3.3-9 9.3 11.7-9 11.2 5.1-11.2 4.5 0.7-2.7-20 12.1z"/>
  <path class="cls-11" d="m101.4 74.4-0.8 6.6 2-5 2.4 0.6z"/>
  <path class="cls-9" d="m111.7 78-1.3 8-16 9 2.5-8 3.1-2 9-9.3-7.6-3.3-9 22.6 30.5-13.9-11.2-5.1"/>
  <path class="cls-11" d="m111.7 78-0.3 1.6 6.6 1.3-6.1-2.8z"/>
  <path class="cls-12" d="m111.4 79.6-2-0.2-5.5 3.2-6.8 6.8 4.9-4.4-7 6.6 3.9-11-2 6.4 3.5-2.4 7.7-5z"/>
  <path class="cls-12" d="m111.4 80.9c-3.8 0.5-6.2 5.2-8.8 7.7l7.8-3.6-7.8 5 2.4-2.6 5.6-4.4 0.8-2.1z"/>
  <path class="cls-11" d="m125.6 82.1 3.5 13.9-16.7-7.3 3.6-1.3z"/>
  <path class="cls-9" d="m124.6 84.4-10.5 4.5 0.3 1 14.6 6.1-3.4-13.9-15 5.5 3.3 8.8 0.5-6.5-2-1z"/>
  <path class="cls-12" d="m115.6 89 7.4-3.1 3.6 5.7-4.2-5.7-0.8 0.5 4.4 5.2-4.6-4.5 1.6 5.8z"/>
  <path class="cls-2" d="m41.1 98.9c2.5 5.7 4 9 3.5 10.2-2.6-1.5-6.6-4-10.5-3 2.8-0.1 6.3 1.5 10.9 3.5l2.9 4.5c-3.5-4-11.9-9.2-18.5-3.5l2-3 1.7-6.2 2.8-2.5c0.7 3.1 2.7 5.5 4 6.7-1.9-2.6-2-7.6-1.8-9.2l2-1.4 7.8 13.4c-1-3.4-3-7.4-6.8-9.5z"/>
  <path class="cls-16" d="m41.4 99c3.2 3.4 5.6 8.9 6.5 15.1-2.9-5.5-2.5-8.5-6.5-15.1z"/>
  <path class="cls-2" d="m28 115.6c3.4-4.6 9.4-7.6 17-3.6-5.4-0.4-8-0.6-11.4 0.4 3 0.2 7 1 9.3 2.7-6.3-0.5-12-0.1-16.9 4.3 2.4-3.5 7.1-5 10.4-5.4-3.3-0.4-7 0.9-8.4 1.6z"/>
  <path class="cls-16" d="m33.6 112.4c4.3-1 10.8-1.4 13.8 4-4.3-3-8.8-4-13.8-4z"/>
  <path class="cls-2" d="m27.4 126.6c3-10.7 14.6-12.7 24.6-7.2-3 1.6-5.1 3.7-6.6 9.7-0.3-7.5 3.6-8 4.2-8.1-2.5-0.4-6.5 1.4-8.2 4 0.6-2 2.2-4 4.6-5.4-2.1-0.2-6 0.5-10.6 3.4 1.5-1.6 2.7-3 5.7-4.4-2.5 0-4.1 0-7.1 1 2.4-2 9-3.2 14.6 0-5.2 1.4-9.2 8.4-8.6 19.8-0.9-3.4 0-14 0-14-2.1 2.6-3.6 6.6-3.9 6.6-0.2-6 1.3-8.9 4.9-11-3.1 0.6-7.6 4-8.9 9-0.2-6 2.3-8 5.3-10.4-2.8 0.8-7.8 3.8-10 7z"/>
  <path class="cls-16" d="m35.6 118.4c4-1 10.4-2.3 17.5 2-3.5-0.4-8.1 0.6-11.7 4.6 2.2-3.4 5-4.6 7.2-5.4-2.6-1.7-8.5-2.7-14.6-0.2l1.6-1z"/>
  <path class="cls-16" d="m45.4 129.1c0-3.1 1.6-6.7 4.2-8.1-1.2 1-3.6 3.4-4.2 8.1z"/>
  <path class="cls-2" d="m46.1 144.6-1.7-1c-1.4-8.5-2-15.6 0-19.7-1.8 2-3.8 7-5 15.2-0.3-4.5-0.5-10.1 0.6-13.7l4.4-1.5 1.7 20.7z"/>
  <path class="cls-16" d="m46.1 144.9-0.5-6.9c-0.5-7-0.2-14 4-17l-2.6 9-0.1 14.9h-0.8z"/>
  <path class="cls-15" d="m45.4 129.1c0.5-3 1.6-6 4.2-8.1-1.7 1-4 3.9-4.2 8.1z"/>
  <path class="cls-2" d="m111.9 114c4.1-6.1 13-8.9 13.5-8-3.4-0.9-6.3 0.6-9.8 3.4 2.8-4.4 5.4-6.4 6.3-11.5l0.1-1.5-2.1-1.4-8 17.1v1.9z"/>
  <path class="cls-16" d="m118.7 99c-2.7 3.9-4.8 8-6.7 15.1 0.4-5.5 4-13.1 6.7-15.1z"/>
  <path class="cls-2" d="m120.4 106c1.6-1.1 3.2-3.9 3.5-7.1l2.5 2.1c1 2 1.2 5.6 3.5 9.1-5-3.7-12.5-1.7-18 4l1.7-4c4.4-4 8.5-4.7 11.5-4.1h-4.7z"/>
  <path class="cls-16" d="m112.4 116.4c3.7-4.4 7-5.5 14-4-5.5-0.4-10.4 1.5-14 4z"/>
  <path class="cls-2" d="m107 120.4c6-3.5 12-5 19.1-1.4-2.7-0.9-7.5-1.4-14.7 1 3.7 1.6 5.2 4.9 3 9.1-1.8-4.5-4-7.5-7.4-8.1v-0.6z"/>
  <path class="cls-16" d="m111.1 121c2.8 2 3.5 5.9 3.3 8.1-1.5-4.1-3.4-6.7-4.5-7.1l1.2-1z"/>
  <path class="cls-16" d="m110.6 121c3.4-0.1 7 1.4 8.3 4-1.5-3-6.9-4.1-8.3-4z"/>
  <path class="cls-2" d="m110.6 119.6c4.3-2.2 9.5-3.5 15.5-0.6-2.7-0.9-5.5-0.6-1.5 0.6-2-0.2-5.6-1.5-10.5 0 2.8 1.3 4.5 3.3 4.8 5.4-2.3-2-3.5-3.6-8.3-4v-1.4z"/>
  <path class="cls-16" d="m111.1 119.6 0.5-0.2c3 0 6.8 2.6 7.3 5.6-2-3.4-5.8-4.6-7.8-5.4z"/>
  <path class="cls-2" d="m114 116.4c6-2 15-1.5 19.9 3-2.9-3.4-8.5-5.4-10.5-5.5 0.6-0.3 5 0 8 1.7-3-4.5-9-7.6-17.4-3v3.8z"/>
  <path class="cls-2" d="m111.9 120.4c1.5 0.6 6.1 4 7.5 15.6 0.6 1 2 1.4 1.2 3.1 0.4-2.1 1-12.2-0.6-13.7 0.9 0.6 3 4.2 3.6 6.6 0.3-4.4-0.6-8.6-4.6-11 3 0.4 7.7 4.6 8.4 9 0.2-4.9-0.8-7-4.8-10.4 3.4 1 7.4 4 9.8 6.8-1-5.3-6.4-10.3-15.5-10l-5 1.2v2.8z"/>
  <path class="cls-11" d="m109.6 88-2.6 18.1 1-7.1z"/>
  <path class="cls-12" d="m105.4 90 1 8 2.6-9.4z"/>
  <linearGradient id="SVGID_5_" x1="80.49" x2="106.4" y1="128.9" y2="128.9" gradientUnits="userSpaceOnUse">
    <stop stop-color="#555563" offset="0"/>
    <stop stop-color="#004F8C" offset="1"/>
  </linearGradient>
  <path class="cls-24" d="m107.1 120.9c-0.2-1.9-1.7-3.3-3.2-3.3-2.8 0-2.9-0.6-4.3-0.6-1.6 0-2.7 2.9-1.2 4.6l-2.8 4.8c-1.5-0.3-4-2.5-5.5-2.5-1.5-0.3-2.7 0.7-3 1.7-2-2-5.1-1.2-4.7 1-1.4-0.2-2.4 1.5-1.4 2.8-1.4 1 0.1 3 1.6 5 2.4 3 6.5 2.5 7.8 2.3 1.2-0.1 4.6-0.3 6.5-0.6 3.1-0.5 4.1-2.2 5.7-3.2 3.4-2.8 4.3-4.9 4.4-8.5l0.4-1.8-0.3-1.7z"/>
  <path class="cls-2" d="m96.6 126c1.8-3.6 3.5-4 5.4-3l-2 1.9 2.4-0.5-1.8 4.2-4.6 0.3c2-0.5 3.9-1 4-1.5-1.6-1.4-3-1.4-3.4-1.4z"/>
  <path class="cls-16" d="m95.6 128.4 4.4-0.5c-0.9-0.9-4.1-1.3-4.6 0-2.4-1-5-2.8-5.8-2.9-1.2-0.1-1.7 1-1.2 1.4l1.2 0.2 6 2.4v-0.6z"/>
  <path class="cls-2" d="m98.9 118c-0.8 3.6 4.2 4.6 5 4.4l-2.3 0.6c-3.6-0.6-4.6-4.1-2.7-5z"/>
  <path class="cls-2" d="m102.9 119c0.2 1.4 1 2 1.2 2v-2s-0.5-0.4-1.2-0.1v0.1z"/>
  <path class="cls-2" d="m83.9 126 4.5 5 2.2 1 1-0.1-5.5-6c-1-0.9-2.1-0.3-2.2 0.1z"/>
  <path class="cls-2" d="m83 128-1.4 0.9c2.3 2.5 3.8 4.7 4.4 6.5 1.4 0.2 4.6 0.2 5.6-0.3l-2.5-0.7-4-4-2.1-2.4z"/>
  <path class="cls-2" d="m100 117.9c4 0.2 6 0 6 5l-1.4 4.1-2.6 3.4c-1.4 2-2.6 1-7 1-1.4 0-2.6-1-6.6-4.5 0.6-1.9 3.6 0 2.5-0.5 0.7-0.5-1.8-3-2.5-1.4 0.5-2.9 3.6 0 4.5 0.6l2.7 2 0.4-0.2c2-0.3 2.6-0.8 4-0.4l-2.6-1 1.6-3 1-0.1c1.4 0.1 3.4-0.3 4-0.5-1.6 0-5.9 0-5.1-3.8 0-0.6 0.5-1 1.1-0.7z"/>
  <path class="cls-6" d="m90 127.9c-0.4-2-1.9-2.5-2.1-1.9-0.3-1.4 3.5-0.1 3 1.6l-0.9 0.3z"/>
  <path class="cls-14" d="m84 126.4c1.1-0.4 2 1 1.9 1.7 0.5-0.2 1.5-0.1-1-2.1"/>
  <path class="cls-6" d="m83.9 126 1.1-0.1c1.4 0.7 2.6 2.7 0 3l-0.6-1.3-0.5-1.6z"/>
  <path class="cls-6" d="m81.4 128.6 1.6-0.6c1 0.9 2.1 2 0.1 3l-1.5-1.1-0.2-1.3z"/>
  <path class="cls-2" d="m81.4 130.9 3.5 3.1 1.1 1.4c-2-0.4-4.4-3.8-4.6-4.5z"/>
  <linearGradient id="SVGID_6_" x1="23.23" x2="49.13" y1="128.9" y2="128.9" gradientTransform="matrix(-1 0 0 1 83.53 0)" gradientUnits="userSpaceOnUse">
    <stop stop-color="#555563" offset="0"/>
    <stop stop-color="#004F8C" offset="1"/>
  </linearGradient>
  <path d="m52.9 120.9c0.2-1.9 1.7-3.3 3.2-3.5 2.9 0 2.9-0.5 4.3-0.8 1.6 0 2.7 2.8 1.2 4.8l2.8 4.6c1.6 0 4.2-2.4 5.6-2.6 1.4-0.3 2.6 0.6 3 1.6 2.1-2 5-0.6 4.6 1.4 1.5-0.3 2.4 1.5 1.3 2.7 1.5 0.9 0.1 3.3-1.5 5.3-2.4 3-6.4 2.5-8 2.2-1 0-4.4-0.5-6.3-0.6-3.1-0.6-4.1-1.9-5.7-3.1-3.4-2.5-4.3-4.9-4.4-8.3l-0.4-2 0.3-1.7z" fill="url(#SVGID_6_)"/>
  <path class="cls-2" d="m63.4 126c-1.8-3.4-3.4-4-5.4-3l2 2-2.4-0.6 1.8 4.2 4.6 0.3c-2-0.5-3.6-1.5-4-1.5 1.6-1 3-1.4 3.4-1.4z"/>
  <path class="cls-16" d="m64.7 128.6-0.3-0.5-4.4-0.7c1.1-0.5 3.9-0.8 4.6 0.5 2.4-1 5-2.9 5.8-2.9 1.2-0.6 2 1 1.2 1.4l-1.2 0.3-5.8 2.4 0.1-0.5z"/>
  <path class="cls-2" d="m61.1 118c0.8 3.6-4.2 4.6-5 4.4l2.3 0.6c3.6-0.4 4.6-3.9 2.7-5z"/>
  <path class="cls-2" d="m57.1 120-1.1 1 0.1-2c0.3 0 0.9-0.4 1-0.1v1.1z"/>
  <path class="cls-2" d="m75 126-4 5-2.6 1h-0.8l5.4-6c1.6-1 2-0.4 2 0z"/>
  <path class="cls-2" d="m75.9 128 1.5 0.9c-1.8 2.5-3.8 5-4.4 6.5h-4.9l2.5-1 4.3-4 1-2.4z"/>
  <path class="cls-2" d="m60 117.4c-3.9 0.5-7 1.5-5.4 6.6 0.8 3 1.8 3.9 3.5 6 1.3 2.4 2 1.6 6.8 1.4 1.5 0 2.1-1 6.1-4.4-0.6-1.4-3.6-0.4-2.4-0.4-0.6-0.6 1.8-3.2 3-1.6-1-2.4-4 0-4.6 0.9l-2.6 1.7-0.4-0.2c-2-0.4-2.6-0.8-4 0l2.6-1.4-2-2.9-1-0.1c-1 0-3.2-0.4-3.5-0.6 2 0.2 5.9-0.4 5.8-3.3 0-1.1-0.8-2-1.9-1.7z"/>
  <path class="cls-6" d="m69.6 127.4c0-1.4 1.8-2.4 2-1.4 0.8-0.9-2-2-2.6 0.9l0.6 0.5z"/>
  <path class="cls-2" d="m76 126.4c-1-0.5-2 1.2-2 1.7-0.1-0.1-1.1-0.1 1.1-1.5"/>
  <path class="cls-6" d="m76 126h-1c-1.4 0.9-2 2.4 0 2.9l1.6-1.3-0.6-1.6z"/>
  <path class="cls-6" d="m78 128.6c-1.4-0.6-2.4 1.5-2.1 1.8l1 0.6 1.7-1.9-0.6-0.5z"/>
  <path class="cls-2" d="m78.1 130.4-3.7 4.6c1.7-0.4 4-3.6 4.2-4l-0.5-0.6z"/>
  <path class="cls-6" d="m100 118 0.4 2.6 2 0.4c1.5-0.4 0-3.4-1.3-2.6l1.3 0.7v1.3l-1.3-0.4c0.3-1.1-0.1-2.1-1.1-2z"/>
  <path class="cls-6" d="m59.6 118-0.2 2.6-2 0.4c-1.4-0.1 0-3.4 1-2.6l-0.8 1v1h1c0-1.4 0.8-2.8 1-2.4z"/>
  <path class="cls-2" d="m61.6 133 3.4 1.6 4.6-0.7 4.8-4.3 0.6-0.6-0.9 2-3 2.9-1.7 0.7-3.3 1-3.1-0.2z"/>
  <path class="cls-2" d="m98.6 132.9-2.6 1.5-0.9 0.2-4.1-0.7-1.6-0.3-3.5-3.2-0.9-1.4 0.9 1.9 4.1 3.7 5.1 1 2.5-0.6 1-1.1"/>
</svg>